<svg width="40" height="40" viewBox="0 0 40 40" fill="none" xmlns="http://www.w3.org/2000/svg">
<circle opacity="0.5" cx="20" cy="20" r="19.5" stroke="white"/>
<path d="M24.1417 16.6898C24.672 16.6898 25.1018 16.26 25.1018 15.7297C25.1018 15.1994 24.672 14.7695 24.1417 14.7695C23.6114 14.7695 23.1815 15.1994 23.1815 15.7297C23.1815 16.26 23.6114 16.6898 24.1417 16.6898Z" fill="white"/>
<path d="M19.8707 15.8926C17.6018 15.8926 15.7626 17.7311 15.7626 20C15.7626 22.2689 17.6018 24.1081 19.8707 24.1081C22.1395 24.1081 23.978 22.2689 23.978 20C23.978 17.7311 22.1401 15.8926 19.8707 15.8926ZM19.8707 22.6669C18.3977 22.6669 17.2037 21.4729 17.2037 20C17.2037 18.5278 18.3977 17.3338 19.8707 17.3338C21.3435 17.3338 22.5369 18.5278 22.5369 20C22.5369 21.4729 21.3441 22.6669 19.8707 22.6669Z" fill="white"/>
<path d="M23.1732 13.0102C25.2774 13.0102 26.9892 14.722 26.9892 16.8261V23.1739C26.9892 25.2786 25.278 26.9904 23.1732 26.9904H16.8261C14.7214 26.9904 13.0096 25.2786 13.0096 23.1739V16.8261C13.0096 14.722 14.7214 13.0102 16.8261 13.0102H23.1732ZM23.1732 12H16.8261C14.1605 12 12 14.1605 12 16.8261V23.1739C12 25.8395 14.1611 28 16.8261 28H23.1739C25.8389 28 28 25.8395 28 23.1739V16.8261C28 14.1605 25.8382 12 23.1732 12Z" fill="white"/>
</svg>
