<svg width="40" height="40" viewBox="0 0 40 40" fill="none" xmlns="http://www.w3.org/2000/svg">
<circle opacity="0.5" cx="20" cy="20" r="19.5" stroke="white"/>
<path d="M20.0734 15.0622C20.4595 15.081 20.8235 15.2476 21.0901 15.5275C21.3567 15.8074 21.5054 16.1791 21.5054 16.5657C21.5054 16.9522 21.3567 17.3239 21.0901 17.6038C20.8235 17.8837 20.4595 18.0504 20.0734 18.0692C19.2465 18.0692 18.5705 17.3955 18.5705 16.5663C18.5705 15.737 19.2465 15.0622 20.0734 15.0622ZM20.0734 20.1934C21.0358 20.1931 21.9588 19.8108 22.6395 19.1305C23.3203 18.4502 23.7032 17.5275 23.7041 16.5651C23.6869 15.6137 23.2969 14.707 22.618 14.0403C21.9391 13.3736 21.0255 13 20.074 13C19.1224 13 18.2089 13.3736 17.53 14.0403C16.8511 14.707 16.4611 15.6137 16.4438 16.5651C16.4448 17.5273 16.8275 18.4498 17.508 19.1301C18.1885 19.8104 19.1112 20.1928 20.0734 20.1934ZM21.543 23.1553C22.2893 22.9834 23.0016 22.6883 23.6507 22.282C23.7689 22.2075 23.8712 22.1105 23.9519 21.9964C24.0326 21.8824 24.09 21.7536 24.1209 21.6173C24.1518 21.4811 24.1555 21.3401 24.1319 21.2024C24.1083 21.0647 24.0578 20.933 23.9833 20.8148C23.9088 20.6966 23.8118 20.5942 23.6977 20.5136C23.5837 20.4329 23.4548 20.3755 23.3186 20.3446C23.1823 20.3137 23.0413 20.3099 22.9036 20.3335C22.7659 20.3571 22.6342 20.4076 22.5161 20.4821C21.7839 20.9409 20.9374 21.1842 20.0734 21.1842C19.2094 21.1842 18.3629 20.9409 17.6307 20.4821C17.5125 20.4075 17.3806 20.357 17.2428 20.3334C17.105 20.3099 16.9638 20.3138 16.8275 20.3449C16.6912 20.376 16.5624 20.4338 16.4484 20.5148C16.3344 20.5959 16.2376 20.6986 16.1635 20.8172C16.0891 20.9352 16.0387 21.0667 16.0152 21.2042C15.9917 21.3417 15.9955 21.4825 16.0264 21.6185C16.0573 21.7545 16.1146 21.8831 16.1952 21.997C16.2758 22.1109 16.3781 22.2077 16.4961 22.282C17.1446 22.6886 17.8566 22.9837 18.6026 23.1553L16.5745 25.1845C16.4246 25.3328 16.3222 25.5223 16.2805 25.729C16.2388 25.9357 16.2596 26.1502 16.3403 26.345C16.421 26.5398 16.5579 26.7061 16.7336 26.8228C16.9093 26.9394 17.1157 27.0011 17.3266 26.9999C17.4665 26.9999 17.6051 26.9723 17.7343 26.9187C17.8636 26.8651 17.981 26.7865 18.0798 26.6874L20.0734 24.6938L22.0693 26.6874C22.1679 26.7865 22.2851 26.8651 22.4142 26.9187C22.5432 26.9724 22.6816 27 22.8214 27C22.9612 27 23.0995 26.9724 23.2286 26.9187C23.3577 26.8651 23.4749 26.7865 23.5734 26.6874C23.6723 26.5888 23.7508 26.4717 23.8043 26.3428C23.8579 26.2138 23.8854 26.0756 23.8854 25.936C23.8854 25.7963 23.8579 25.6581 23.8043 25.5291C23.7508 25.4002 23.6723 25.2831 23.5734 25.1845L21.543 23.1553Z" fill="white"/>
</svg>
