<svg width="40" height="40" viewBox="0 0 40 40" fill="none" xmlns="http://www.w3.org/2000/svg">
<circle opacity="0.5" cx="20" cy="20" r="19.5" stroke="white"/>
<path d="M26.5248 15.6043C25.6633 15.9266 25.5448 15.8823 25.9677 15.4019C26.2815 15.0605 26.6554 14.4411 26.6554 14.2602C26.6554 14.2302 26.5032 14.2841 26.3319 14.38C26.1498 14.4866 25.7448 14.6459 25.4405 14.7418L24.8954 14.9239L24.3994 14.5705C24.1251 14.38 23.7417 14.1643 23.5404 14.0997C23.0229 13.9499 22.2345 13.9727 21.7685 14.1428C20.5046 14.622 19.7043 15.8607 19.7966 17.2156L19.8253 17.738L19.3197 17.6745C17.4783 17.4289 15.8705 16.5975 14.5059 15.1994L13.835 14.5058L13.6673 15.0197C13.3019 16.1602 13.5343 17.3666 14.2927 18.1776C14.6976 18.6258 14.6078 18.6904 13.9093 18.4233C13.6673 18.3381 13.4541 18.2748 13.4337 18.3046C13.363 18.3801 13.6086 19.3505 13.8003 19.7338C14.0627 20.267 14.5994 20.7905 15.184 21.1008L15.68 21.3452L15.093 21.3572C14.5263 21.3572 14.5095 21.368 14.5682 21.5908C14.7707 22.2845 15.5686 23.02 16.46 23.341L17.0853 23.5662L16.5378 23.9077C15.7291 24.3977 14.7779 24.6769 13.8279 24.696C13.3714 24.7092 13 24.7511 13 24.781C13 24.8889 14.2328 25.4867 14.9528 25.7202C17.1068 26.4139 19.6659 26.1144 21.5876 24.9307C22.9546 24.0887 24.3156 22.4125 24.9553 20.7905C25.2991 19.9255 25.643 18.3466 25.643 17.5883C25.643 17.0983 25.673 17.0348 26.2397 16.4478C26.5715 16.1063 26.8877 15.7325 26.9489 15.6247C27.0507 15.4246 27.0423 15.4246 26.5248 15.6043Z" fill="white"/>
</svg>
