<svg width="40" height="40" viewBox="0 0 40 40" fill="none" xmlns="http://www.w3.org/2000/svg">
<circle opacity="0.5" cx="20" cy="20" r="19.5" stroke="white"/>
<path d="M27.9153 23.9457C27.9003 23.9107 27.8824 23.877 27.8617 23.8448C27.5833 23.3623 27.0521 22.7714 26.2693 22.0698L26.254 22.0526L26.245 22.0464L26.2361 22.039H26.2272C25.9907 21.8301 25.7657 21.6095 25.5529 21.378C25.3805 21.1663 25.341 20.9472 25.4355 20.7269C25.5031 20.5607 25.7534 20.2124 26.1863 19.6757C26.4136 19.3926 26.5937 19.1649 26.7277 18.9938C27.6893 17.7616 28.1043 16.9739 27.9779 16.6304L27.9293 16.5517C27.8961 16.5024 27.8093 16.4593 27.6701 16.4212C27.4963 16.3775 27.3148 16.3699 27.1376 16.399L24.737 16.4163C24.6986 16.4015 24.6425 16.404 24.571 16.4212L24.4624 16.4446L24.4203 16.4655L24.3884 16.4901C24.3528 16.513 24.3213 16.5412 24.2951 16.5738C24.2618 16.617 24.2343 16.6642 24.2134 16.7141C23.9645 17.3375 23.6665 17.9416 23.3221 18.5211C23.1178 18.8547 22.9275 19.1415 22.7564 19.3852C22.5827 19.6277 22.4397 19.8074 22.3222 19.9231C22.2048 20.0388 22.1 20.1324 22.0068 20.2013C21.9111 20.2715 21.8383 20.2998 21.7885 20.2887L21.648 20.2579C21.5698 20.2084 21.5054 20.1412 21.4603 20.0622C21.4083 19.9639 21.3762 19.857 21.3658 19.7471C21.3318 19.5118 21.3236 19.2738 21.3415 19.0369C21.3466 18.8719 21.3492 18.7587 21.3492 18.6996C21.3492 18.4965 21.3543 18.2749 21.362 18.0374L21.3837 17.4711C21.3901 17.3308 21.3926 17.1843 21.3926 17.0305C21.3946 16.9076 21.3848 16.7848 21.3632 16.6637C21.3444 16.5755 21.3153 16.4896 21.2764 16.4076C21.2412 16.3282 21.1814 16.2612 21.1053 16.2156C21.0188 16.1648 20.9244 16.1278 20.8256 16.1061C20.4549 16.034 20.0775 15.999 19.6994 16.0014C18.6676 15.9891 18.0036 16.0556 17.7086 16.1935C17.5886 16.2546 17.4813 16.3363 17.3919 16.4347C17.2923 16.5529 17.2783 16.6157 17.3498 16.628C17.6831 16.676 17.9193 16.7905 18.0585 16.9714L18.1108 17.0686C18.1479 17.1376 18.1875 17.2607 18.2258 17.4379C18.2654 17.6152 18.2896 17.8109 18.3011 18.0251C18.3279 18.4153 18.3279 18.7501 18.3011 19.0282C18.2805 19.2455 18.2541 19.4622 18.2219 19.6782C18.2031 19.8089 18.1658 19.9364 18.1108 20.0573C18.0585 20.1533 18.0278 20.2136 18.0087 20.2345C17.9982 20.2504 17.9843 20.2638 17.9678 20.2739C17.896 20.3003 17.8199 20.314 17.7431 20.3145C17.6639 20.3145 17.5694 20.2764 17.4596 20.2013C17.332 20.1113 17.2159 20.0072 17.1135 19.8911C16.9627 19.7195 16.8272 19.5359 16.7087 19.3421C16.5388 19.0711 16.3828 18.7922 16.2414 18.5063L16.1086 18.2737C16.0256 18.1235 15.9132 17.9044 15.7676 17.6189C15.6221 17.3333 15.4956 17.0551 15.3833 16.788C15.3459 16.6845 15.2763 16.5947 15.1841 16.5307L15.1419 16.5049C15.0425 16.445 14.9319 16.4044 14.8163 16.3855L12.5344 16.4015C12.2994 16.4015 12.1424 16.452 12.0594 16.5541L12.0274 16.6021C12.0067 16.6417 11.9974 16.6859 12.0006 16.7301C12.0006 16.788 12.0172 16.8606 12.0504 16.9468C12.3837 17.7026 12.7464 18.43 13.1397 19.1329C13.5317 19.832 13.8713 20.3982 14.1599 20.8266C14.4485 21.2537 14.7422 21.6612 15.0436 22.039C15.3424 22.4206 15.5416 22.6643 15.6399 22.7702C15.7128 22.8531 15.789 22.9332 15.8685 23.0102L16.0754 23.2035C16.2095 23.3315 16.4048 23.4854 16.6653 23.6651C16.922 23.8448 17.208 24.0208 17.5222 24.1956C17.8376 24.3716 18.2015 24.5107 18.6191 24.6215C19.0354 24.7323 19.4414 24.7753 19.8347 24.7544H20.7924C20.9577 24.7498 21.1155 24.6867 21.2355 24.5772L21.2687 24.5378C21.3316 24.4239 21.3624 24.2962 21.3581 24.1673C21.3508 23.9587 21.3692 23.75 21.413 23.5457C21.4565 23.3598 21.5012 23.2207 21.5561 23.1272C21.602 23.0399 21.6619 22.9602 21.7336 22.8908C21.7762 22.8461 21.8242 22.8064 21.8766 22.7727C21.8969 22.761 21.9188 22.7523 21.9417 22.7468C22.0745 22.7025 22.2341 22.7444 22.4142 22.8711C22.5942 22.9979 22.7615 23.153 22.9211 23.3376C23.0795 23.5223 23.2697 23.7291 23.4919 23.9605C23.7141 24.1907 23.9082 24.3618 24.0755 24.475L24.2428 24.571C24.3513 24.635 24.4969 24.6929 24.6757 24.7483C24.8255 24.7993 24.9863 24.8129 25.143 24.7877L27.2743 24.7557C27.4447 24.7647 27.6146 24.7308 27.7672 24.6572C27.8847 24.587 27.9536 24.5169 27.9753 24.4332C27.9984 24.3444 28.0001 24.2518 27.9804 24.1624C27.9647 24.0886 27.9429 24.0161 27.9153 23.9457Z" fill="white"/>
</svg>
