<svg width="40" height="40" viewBox="0 0 40 40" fill="none" xmlns="http://www.w3.org/2000/svg">
<circle opacity="0.5" cx="20" cy="20" r="19.5" stroke="white"/>
<path d="M27.7858 15.8777C27.5883 15.1435 27.0094 14.5647 26.2753 14.367C24.9341 14 19.5693 14 19.5693 14C19.5693 14 14.2047 14 12.8635 14.3531C12.1435 14.5506 11.5504 15.1436 11.3529 15.8777C11 17.2188 11 20 11 20C11 20 11 22.7952 11.3529 24.1223C11.5507 24.8564 12.1293 25.4352 12.8636 25.6329C14.2188 26 19.5695 26 19.5695 26C19.5695 26 24.9341 26 26.2753 25.6469C27.0095 25.4493 27.5883 24.8705 27.786 24.1364C28.1389 22.7952 28.1389 20.0141 28.1389 20.0141C28.1389 20.0141 28.153 17.2188 27.7858 15.8777ZM17.8612 22.5694V17.4306L22.3223 20L17.8612 22.5694Z" fill="white"/>
</svg>
