<svg width="21" height="21" viewBox="0 0 21 21" fill="none" xmlns="http://www.w3.org/2000/svg">
<path d="M15.7571 19.5482C15.0087 19.5191 14.1122 19.2964 13.1328 18.8827C10.9856 17.9765 8.6778 16.2606 6.63453 14.0521C4.59067 11.843 3.05907 9.40842 2.32159 7.19736C1.65144 5.18704 1.71282 3.5608 2.48646 2.84563C2.5977 2.74271 2.71106 2.63199 2.82819 2.51779C3.53535 1.82972 4.3343 1.05554 5.35046 1.13139C6.0505 1.18767 6.71296 1.64965 7.37504 2.5424C9.3314 5.1789 8.36918 6.05398 7.25551 7.06858L7.05886 7.24876C6.8766 7.41739 6.5135 8.21698 9.47782 11.421C10.4454 12.4668 11.2752 13.237 11.9439 13.7095C12.365 14.007 13.121 14.4617 13.4503 14.157L13.6484 13.9721C14.7451 12.9429 15.692 12.0545 18.167 14.2076C19.0057 14.937 19.4143 15.6327 19.4161 16.3362C19.4183 17.3548 18.5783 18.0928 17.8369 18.7438C17.7145 18.8517 17.5954 18.9562 17.4841 19.0585C17.1001 19.4144 16.5018 19.5771 15.7571 19.5482Z" stroke="#EF4D9C" stroke-width="1.8"/>
</svg>
