<svg width="24" height="24" viewBox="0 0 24 24" fill="none" xmlns="http://www.w3.org/2000/svg">
<path d="M22 20.453L16.6472 15.1002C17.7996 13.6199 18.4927 11.7635 18.4927 9.74635C18.4927 4.92383 14.5689 1 9.74635 1C4.92383 1 1 4.92383 1 9.74635C1 14.5689 4.92383 18.4927 9.74635 18.4927C11.7646 18.4927 13.6199 17.7985 15.1002 16.6472L20.453 22L22 20.453ZM9.74745 16.3061C6.12974 16.3061 3.18769 13.3641 3.18769 9.74635C3.18769 6.12864 6.12974 3.18659 9.74745 3.18659C13.3652 3.18659 16.3072 6.12864 16.3072 9.74635C16.3072 13.3641 13.3652 16.3061 9.74745 16.3061Z" fill="#EF4D9C"/>
</svg>
